<?xml version="1.0" encoding="utf-8"?>
<!-- Generator: Adobe Illustrator 26.0.1, SVG Export Plug-In . SVG Version: 6.00 Build 0)  -->
<svg version="1.1" id="Capa_1" xmlns="http://www.w3.org/2000/svg" xmlns:xlink="http://www.w3.org/1999/xlink" x="0px" y="0px"
	 viewBox="0 0 1199 1162.6" style="enable-background:new 0 0 1199 1162.6;" xml:space="preserve">
<style type="text/css">
	.st0{fill:#FFFFFF;}
	.st1{fill:#E81D30;}
	.st2{fill:#BBBCBB;}
</style>
<circle cx="608.7" cy="576" r="450"/>
<path class="st0" d="M641,363.2c0,20.8,0,41.2,0,61.5c0.4,0.3,0.7,0.7,1,0.7c3.8,0.5,7.2,1.7,6.6,6.3c-0.5,4.7-4.3,4.8-8,4.8
	c-23.2,0-46.3,0-69.5,0c-3.4,0-7,0-7.9-4.3c-0.9-4.1,1.6-5.9,5.4-6.9c1-0.3,2-3,2-4.6c0.1-22.2,0.1-44.3,0.1-66.5
	c0-10.7,0-21.3,0-32c0-6.8,2.5-9.4,9.3-9.5c16.8-0.1,33.7-0.1,50.5,0c6,0,10.2,4.2,10.2,10.4c0.1,8.8,0,17.7,0,26.5
	c0,1.8,0,3.6,0,6.2c2.5,0,4.6-0.1,6.7,0c7.1,0.4,11.4,4.6,11.4,11.8c0.1,12,0.1,24,0,36c0,3.4,0.7,6.3,4.9,5.3
	c1.4-0.3,3.2-1.8,3.5-3c0.6-2.9,0.5-5.9,0.5-8.9c0-12.8,0.2-25.7-0.1-38.5c-0.1-3.3-1.6-6.6-2.8-9.8c-0.3-1-1.6-2.3-2.5-2.3
	c-10.7,0-11.3-11.5-18.9-15.4c1.6-2.1,2.6-3.5,4.2-5.5c7.4,6.1,14.9,11.4,21.2,17.9c3,3.1,5.1,8.5,5.3,12.9
	c0.6,15.5,0.2,31,0.2,46.5c0,1-0.1,2-0.2,3c-0.8,8-3.5,10.3-12.2,10c-6.3-0.2-9.5-3.6-9.8-10.7c-0.2-6.3,0-12.7,0-19
	c0-4.8,0-9.7,0-14.5C652.2,362.8,650.8,361.6,641,363.2z M605.5,351.6c5.2,0,10.3-0.1,15.4,0c3.8,0.1,5.4-1.7,5.3-5.5
	c-0.1-5-0.1-10,0-15c0-3.5-1.5-5.2-5.1-5.2c-10.5,0-20.9,0.1-31.4,0c-3.9,0-5.4,1.9-5.4,5.5c0,5,0,10,0,15c0,3.4,1.7,5.2,5.2,5.2
	C594.9,351.5,600.2,351.6,605.5,351.6z"/>
<path class="st0" d="M637.7,244.8c-11.9,0-23.5,0-35.3,0c0-27.7,0-55.1,0-82.8c11.8,0,23.4,0,35.3,0
	C637.7,189.6,637.7,217,637.7,244.8z"/>
<path class="st1" d="M255.1,522.7c0,9.5,0,18.1,0,27.3c13.3,0,26.6,0,40.2,0c0,4.1,0,7.7,0,11.7c-18.4,0-36.8,0-55.8,0
	c-0.1-1.5-0.3-3-0.3-4.6c0-24.2,0.1-48.3-0.1-72.5c0-3.9,1-5.2,5-5.1c15.7,0.2,31.3,0.1,47,0.1c1.3,0,2.6,0.2,4.3,0.3
	c0,3.8,0,7.3,0,11.5c-13.5,0-26.7,0-40.2,0c0,6.7,0,12.8,0,19.6c13,0,25.8,0,39,0c0,4.2,0,7.8,0,11.8
	C281.2,522.7,268.4,522.7,255.1,522.7z"/>
<path class="st0" d="M981.5,385.6c4.9,11,9.5,21.3,14.3,32.2c-22.4,10-44.4,19.8-67.1,29.9c-4.8-10.6-9.4-21-14.4-32.1
	C936.7,405.6,958.8,395.8,981.5,385.6z"/>
<path class="st0" d="M954.3,522.6c0,13.6,0,26.2,0,39.1c-5.2,0-10,0-15,0c0-27.2,0-54.3,0-81.7c16.7,0,33.4,0,50.4,0
	c0,3.6,0,7,0,11.2c-11.6,0-23.1,0-35,0c0,6.8,0,12.9,0,19.6c11.1,0,22.1,0,33.6,0c0,4.2,0,7.7,0,11.9
	C977.2,522.6,966.2,522.6,954.3,522.6z"/>
<path class="st1" d="M393.4,242.8c4.8-3.4,8.9-6.4,13.7-9.8c13.5,19,26.8,37.8,40.6,57.2c-4.5,3.2-8.8,6.2-13.7,9.7
	C420.4,280.9,407.1,262.1,393.4,242.8z"/>
<path class="st0" d="M806.5,299.9c-4.8-3.4-9-6.3-13.7-9.7c13.6-19.1,27-38.1,40.6-57.2c4.7,3.4,8.9,6.4,13.6,9.8
	C833.4,261.9,820.1,280.6,806.5,299.9z"/>
<path class="st0" d="M498.3,192.8c5.4-1.6,10.3-3.1,16-4.9c6.8,22.2,13.4,44.2,20.4,66.9c-5.3,1.6-10.2,3.2-16,5
	C511.8,237.4,505.1,215.3,498.3,192.8z"/>
<path class="st0" d="M726.1,187.9c5.7,1.7,10.6,3.2,16,4.9c-6.8,22.4-13.5,44.4-20.3,67c-5.5-1.7-10.4-3.2-16-4.9
	C712.5,232.5,719.2,210.4,726.1,187.9z"/>
<path class="st0" d="M916.2,302.5c4,4.4,7.4,8.2,11.3,12.4c-17.2,15.8-34.3,31.4-51.6,47.3c-3.8-4.2-7.4-8.1-11.3-12.4
	C881.8,334,898.8,318.4,916.2,302.5z"/>
<path class="st1" d="M324.2,302.5c17.4,15.9,34.4,31.5,51.7,47.3c-3.9,4.3-7.4,8.2-11.2,12.4c-17.3-15.8-34.3-31.3-51.7-47.3
	C316.6,310.8,320.1,306.9,324.2,302.5z"/>
<path d="M605.5,351.6c-5.3,0-10.6,0-15.9,0c-3.5,0-5.2-1.7-5.2-5.2c0-5,0-10,0-15c0-3.6,1.5-5.5,5.4-5.5c10.5,0.1,20.9,0.1,31.4,0
	c3.6,0,5.1,1.7,5.1,5.2c-0.1,5-0.1,10,0,15c0.1,3.8-1.5,5.5-5.3,5.5C615.8,351.5,610.7,351.6,605.5,351.6z"/>
<path class="st1" d="M606.4,35.8c-299.3,0-542,242.6-542,542s242.6,542,542,542s542-242.6,542-542S905.7,35.8,606.4,35.8z
	 M606.4,1070.7c-272.2,0-492.9-220.7-492.9-492.9S334.2,84.9,606.4,84.9s492.9,220.7,492.9,492.9S878.6,1070.7,606.4,1070.7z"/>
<circle class="st0" cx="608.7" cy="618.9" r="50.5"/>
<polygon class="st2" points="592.6,633 375.8,374.7 626.3,606 627.6,640.5 "/>
</svg>
