<?xml version="1.0" encoding="utf-8"?>
<!-- Generator: Adobe Illustrator 26.0.1, SVG Export Plug-In . SVG Version: 6.00 Build 0)  -->
<svg version="1.1" id="Capa_1" xmlns="http://www.w3.org/2000/svg" xmlns:xlink="http://www.w3.org/1999/xlink" x="0px" y="0px"
	 viewBox="0 0 840 792" style="enable-background:new 0 0 840 792;" xml:space="preserve">
<style type="text/css">
	.st0{fill:url(#SVGID_1_);}
	.st1{fill:url(#SVGID_00000016798339584162435230000006931760847424302214_);}
	.st2{fill:url(#SVGID_00000115500380916313293450000012840119922113694361_);}
	.st3{fill:#45AF08;}
	.st4{fill:#FCFCFC;}
	.st5{fill:url(#SVGID_00000059271808940716400270000001016081729674314890_);}
	.st6{fill:url(#SVGID_00000031171488773791305410000014918885695578256314_);}
</style>
<linearGradient id="SVGID_1_" gradientUnits="userSpaceOnUse" x1="112.1857" y1="395.5201" x2="771.4143" y2="395.5201">
	<stop  offset="3.503088e-02" style="stop-color:#535351"/>
	<stop  offset="0.4209" style="stop-color:#343433"/>
	<stop  offset="0.9903" style="stop-color:#000000"/>
</linearGradient>
<circle class="st0" cx="441.8" cy="395.5" r="329.6"/>
<linearGradient id="SVGID_00000103241996877166400930000005597252463581600925_" gradientUnits="userSpaceOnUse" x1="445.9998" y1="790.6829" x2="437.8296" y2="22.6829">
	<stop  offset="9.683870e-03" style="stop-color:#000000"/>
	<stop  offset="7.718129e-02" style="stop-color:#020D14"/>
	<stop  offset="0.5218" style="stop-color:#0C5E91"/>
	<stop  offset="0.8262" style="stop-color:#1292E0"/>
	<stop  offset="0.965" style="stop-color:#15A6FF"/>
</linearGradient>
<path style="fill:url(#SVGID_00000103241996877166400930000005597252463581600925_);" d="M441.8,33.5
	c-200.1,0-362.4,162.2-362.4,362.4s162.2,362.4,362.4,362.4S804.2,596,804.2,395.9S641.9,33.5,441.8,33.5z M441.8,725.5
	c-182,0-329.6-147.6-329.6-329.6S259.8,66.3,441.8,66.3s329.6,147.6,329.6,329.6S623.8,725.5,441.8,725.5z"/>
<g>
	<path class="st4" d="M222.9,511.3c4.6-8.9,13.1-7.3,21.4-7.4c0-2,0-3.6,0-5.3c0-28.1-0.1-56.1,0-84.2c0-15.9,8.5-27.8,23-30.8
		c6.5-1.3,13.6-0.4,20.4-0.2c4.8,0.1,9.6,0.7,14.6,1c0-4-0.1-7.8,0-11.6c0.8-18.7,15.3-35.6,34.2-40c18.2-4.2,38.6,4.7,47.5,20.9
		c1.3,2.4,2.7,4.8,3.3,7.4c0.8,3.5,2.7,4.2,6,4.2c67.5-0.1,135.1-0.1,202.6-0.1c14,0,25.9,4.5,34.8,15.9c6.1,7.9,8.4,17,8.4,26.7
		c0,30.3,0,60.7,0,91c0,1.5,0,3.1,0,5.1c3.5,0,6.6-0.1,9.7,0c7.1,0.2,11.9,4.7,11.7,10.9c-0.2,6-5,10.1-11.9,10.1
		c-137.9,0-275.8,0-413.7,0.1c-6,0-9.4-3.1-12-7.8C222.9,515.2,222.9,513.3,222.9,511.3z M618,463.3c0-18.6-0.4-36.7,0.1-54.8
		c0.5-14.4-9.6-22.3-22.1-22.2c-66.9,0.3-133.9,0.1-200.8,0.1c-1.5,0-3,0-4.7,0c0,25.9,0,51.3,0,76.8
		C466.4,463.3,542,463.3,618,463.3z M265.8,503.6c117.6,0,234.8,0,352,0c0-6.4,0-12.4,0-18.9c-1.9,0-3.6,0-5.2,0
		c-75.6,0-151.3-0.1-226.9,0.1c-11.7,0-17.5-3-16.6-16.9c0.5-7.8,0.1-15.6,0.1-23.3c-34.8,0-69,0-103.3,0
		C265.8,464.4,265.8,483.9,265.8,503.6z M368.9,410.5c-1-0.1-1.8-0.2-2.6-0.3c-13.5-1-26.9-2-40.4-3c-16.5-1.2-32.9-2.4-49.4-3.5
		c-5.6-0.4-9.8,2-10.4,6.6c-0.6,4.1-0.1,8.4-0.1,12.5c34.5,0,68.7,0,103,0C368.9,418.6,368.9,414.7,368.9,410.5z M369.1,389.2
		c0-5.1,0.2-9.5,0-13.9c-0.7-13.9-12.2-23.8-25.9-22.2c-12.9,1.5-21.7,13.9-19.4,27.3c0.7,3.9,2.1,6.6,6.9,6
		c1.8-0.2,3.7,0.2,5.5,0.4C347,387.6,357.8,388.4,369.1,389.2z"/>
	<path class="st4" d="M451.9,167.1c39.8,0.4,72.6,31.2,75.2,70.9c2.6,39.4-26,74-65.3,79.3c-13,1.8-25.5-0.1-37.7-4.6
		c-2.1-0.8-4.7-1-6.9-0.7c-8.2,1.2-16.3,2.7-24.4,4.1c-10.2,1.7-15.7-3.5-14.2-13.8c1.3-8.6,3-17.1,4.3-25.7c0.3-1.7,0-3.7-0.6-5.3
		c-17.5-44.7,8-92.5,54.9-102.4C442,168,447,167.7,451.9,167.1z M401.6,293.1c4.4-0.7,8.1-1.2,11.6-2c6.4-1.6,12.4-1.2,18.6,1.8
		c4.4,2.1,9.5,3.3,14.4,3.7c36.9,3.4,65.2-27.4,59-63.9c-3.6-21.2-21.1-38.8-42.8-43c-21.9-4.2-44.4,5.4-55.8,23.7
		c-10.2,16.4-11.6,33.6-3.9,51.3c2.1,4.8,2.6,9.5,1.5,14.5C403.1,283.5,402.5,288,401.6,293.1z"/>
	<path class="st4" d="M443.4,236.1c-3.1,0-5.1,0.1-7.2,0c-6.1-0.3-10.6-4.9-10.6-10.6c0.1-5.6,4.5-10.2,10.4-10.3
		c10.7-0.2,21.3-0.1,32-0.1c4.4,0,7.6,2.2,9.4,6.2c1.8,4,1.2,7.9-1.7,11.1c-3.8,4.4-7.9,8.6-11.9,12.9c-0.9,1-1.8,2.1-3.3,3.9
		c3.2,0,5.4-0.1,7.7,0c5.8,0.4,10.3,5.1,10.2,10.6c-0.1,5.5-4.7,10.2-10.5,10.3c-10.5,0.1-21.1,0.1-31.6,0.1c-4.6,0-7.9-2.1-9.8-6.3
		c-1.9-4.2-1-8.1,2-11.5c3.8-4.2,7.7-8.4,11.6-12.5C440.9,239,441.8,238,443.4,236.1z"/>
</g>
</svg>
