<?xml version="1.0" encoding="utf-8"?>
<!-- Generator: Adobe Illustrator 26.0.1, SVG Export Plug-In . SVG Version: 6.00 Build 0)  -->
<svg version="1.1" id="Capa_1" xmlns="http://www.w3.org/2000/svg" xmlns:xlink="http://www.w3.org/1999/xlink" x="0px" y="0px"
	 viewBox="0 0 840 792" style="enable-background:new 0 0 840 792;" xml:space="preserve">
<style type="text/css">
	.st0{fill:url(#SVGID_1_);}
	.st1{fill:url(#SVGID_00000088108420047742827700000013935760490398803344_);}
	.st2{fill:url(#SVGID_00000158740876104767192490000011832943593859746973_);}
	.st3{fill:#45AF08;}
	.st4{fill:#FCFCFC;}
	.st5{fill:url(#SVGID_00000080198846829077076910000001917372689402045100_);}
</style>
<g>
	<radialGradient id="SVGID_1_" cx="420" cy="396.6207" r="329.6143" gradientUnits="userSpaceOnUse">
		<stop  offset="5.327789e-09" style="stop-color:#5AF906"/>
		<stop  offset="4.079575e-02" style="stop-color:#64F815"/>
		<stop  offset="0.1437" style="stop-color:#78F734"/>
		<stop  offset="0.2563" style="stop-color:#89F64E"/>
		<stop  offset="0.3804" style="stop-color:#97F561"/>
		<stop  offset="0.522" style="stop-color:#A0F46F"/>
		<stop  offset="0.6964" style="stop-color:#A5F478"/>
		<stop  offset="1" style="stop-color:#A7F47A"/>
	</radialGradient>
	<circle class="st0" cx="420" cy="396.6" r="329.6"/>
	<path class="st3" d="M420,33.6C219.9,33.6,57.6,195.9,57.6,396S219.9,758.4,420,758.4S782.4,596.1,782.4,396S620.1,33.6,420,33.6z
		 M420,725.6C238,725.6,90.4,578,90.4,396S238,66.4,420,66.4S749.6,214,749.6,396S602,725.6,420,725.6z"/>
	<path d="M215.2,543.3c2.2-3.7,5.5-4.9,9.7-4.8c5.4,0.2,10.9,0,16.4,0c0.2,0,0.5-0.2,1-0.4c0-85.8,0-171.7,0-257.9
		c50.1,0,99.9,0,150,0c0,86,0,171.9,0,258.1c4.6,0,8.9,0,13.7,0c0-1.5,0-3,0-4.6c0-34.3,0-68.7,0-103c0-8.6,5.6-14.6,13.5-14.6
		c7.8,0,13.6,5.8,13.6,14.1c0.1,16.8,0,33.5,0,50.3c0,19.1,0,38.3,0,58.1c1.7,0,3.3,0,4.8,0c45,0,90,0,134.9,0c2,0,4,0.1,5.9,0.7
		c3,1,4.4,3.5,4.2,6.5c-0.2,3.2-2.1,5.5-5.4,6.1c-1.4,0.3-2.9,0.2-4.4,0.2c-116,0-232.1,0-348.1,0.1c-4.3,0-7.9-0.7-9.9-5
		C215.2,546,215.2,544.6,215.2,543.3z M378.8,358.3c0-16.2,0-32.5,0-48.7c0-10.9-5.3-16.2-16.1-16.2c-30.2,0-60.4,0-90.6,0
		c-10.8,0-16.1,5.3-16.1,16.2c0,32.3,0,64.7,0,97c0,10.9,5.2,16.2,16.1,16.2c30.2,0,60.4,0,90.6,0c10.8,0,16-5.3,16.1-16.2
		C378.8,390.5,378.8,374.4,378.8,358.3z M317,525c13.3,0,26.6,0,39.9,0c9.5,0,14.9-5.4,14.9-14.8c0.1-19.7,0.1-39.4,0-59
		c0-9.1-5.6-14.7-14.7-14.7c-26.5-0.1-52.9-0.1-79.4,0c-9.2,0-14.7,5.6-14.7,14.7c-0.1,19.7-0.1,39.4,0,59c0,9.4,5.5,14.8,14.9,14.8
		C290.9,525,304,525,317,525z M426.3,436.4c0-3.7-2.8-6.5-6.5-6.6c-3.8,0-6.7,2.7-6.8,6.3c-0.1,4,3.1,7.2,7,7.1
		C423.3,443.2,426.2,440.1,426.3,436.4z"/>
	<path d="M228.8,245.8c59.2,0,118,0,177.1,0c0,4.8,0.2,9.4-0.1,14c-0.2,3.4-2.4,5.6-5.8,6.1c-1.4,0.2-2.9,0.2-4.4,0.2
		c-52.2,0-104.3,0-156.5,0c-8.3,0-10.4-2-10.4-10.4C228.8,252.6,228.8,249.4,228.8,245.8z"/>
	<path d="M542.3,290c0,4.9,0,9.2,0,13.6c0,7.2,0.1,14.4-0.1,21.5c0,1.4-0.6,3.2-1.5,4.2c-8,8.2-16.1,16.2-24.2,24.3
		c-0.2,0.2-0.6,0.3-1.5,0.8c0-6.1,0-11.9,0-17.7c0-5.7-0.1-11.4,0.1-17.1c0-1.4,0.5-3.3,1.5-4.2c7.9-8.1,15.9-16,23.9-24
		C540.8,290.9,541.2,290.7,542.3,290z"/>
	<path d="M555.9,312.9c0-11.8,0-23.6,0-35.5c0-0.9,0.3-2,0.8-2.5c8.5-8.6,17.1-17.1,26.4-26.3c0,3.7,0,6.6,0,9.4
		c0,8.6,0,17.3,0,25.9c0,1.4-0.2,3.1-1.1,4c-8.3,8.6-16.8,17-25.2,25.4C556.5,313.2,556.2,313,555.9,312.9z"/>
	<path d="M474,395.4c0-7.5,0-14.5,0-21.5c0-5.4-1.3-11.5,0.6-16.1c1.9-4.7,7.2-8,11-11.8c4.8-4.9,9.7-9.8,15.2-15.4
		c0.2,1.9,0.4,3,0.4,4.1c0,10.4,0.1,20.7-0.1,31.1c0,1.6-0.5,3.5-1.5,4.6c-7.9,8.1-15.9,16.1-23.9,24
		C475.5,394.6,475,394.8,474,395.4z"/>
	<path d="M428.7,404c10.6-10.5,21.1-21,31.7-31.5c0,6.9,0,14,0,21.2c0,5.3,1.4,11.3-0.6,15.8c-2,4.7-7.2,8-11,11.8
		c-0.7,0.7-1.5,1.4-2.6,2.3C443.5,413.9,437.5,407.5,428.7,404z"/>
	<path d="M610.3,552.1c-2.4,0-4.8,0.1-7.2,0c-3.5-0.3-6-2.8-6.3-6.1c-0.3-3.3,1.7-6.6,5.2-6.9c5.5-0.5,11.1-0.5,16.6,0
		c3.4,0.3,5.6,3.8,5.1,7c-0.5,3.6-2.7,5.8-6.4,6C615.1,552.3,612.7,552.1,610.3,552.1z"/>
	<path d="M596.9,273c0-11.2,0-21.5,0-31.7c7.3-1.6,14.8,6.7,13.2,14.9c-0.5,2.4-1.6,4.9-3.1,6.7C604.1,266.3,600.7,269.3,596.9,273z
		"/>
	<path d="M270,307.1c31.7,0,63.1,0,94.9,0c0,33.9,0,67.7,0,101.8c-6.5,0-13.1,0-20.2,0c0-4.1,0-8.2,0-12.2
		c-0.1-12.2-7.4-20.4-19.6-21.4c-5.7-0.4-11.5-0.3-17.1,0.2c-9.7,0.9-17.1,9-17.6,18.7c-0.2,4.8,0,9.6,0,14.6c-6.8,0-13.4,0-20.3,0
		C270,375.1,270,341.3,270,307.1z"/>
	<path d="M331,409c-9.2,0-17.9,0-27,0c0-4.9-0.3-9.6,0.1-14.3c0.2-3.4,2.6-5.6,6.1-5.8c4.9-0.2,9.8-0.3,14.7,0
		c3.9,0.2,6,2.8,6.2,6.6C331.1,399.9,331,404.3,331,409z"/>
	<path d="M276.8,511.1c0-20.4,0-40.5,0-60.9c27.1,0,54,0,81.2,0c0,20.3,0,40.5,0,60.9C331,511.1,304.1,511.1,276.8,511.1z
		 M317.2,477.3c6.5,0,13,0.1,19.5,0c4.9-0.1,7.8-2.6,7.8-6.6c0.1-4-2.9-6.9-7.6-6.9c-13-0.1-26-0.1-39,0c-4.8,0-7.7,3-7.6,6.9
		c0.1,4,2.9,6.6,7.8,6.6C304.5,477.3,310.8,477.3,317.2,477.3z M317.8,484.2c-6.5,0-13,0-19.5,0c-5,0-8.1,2.7-8,6.8
		c0.1,3.9,3.1,6.7,7.8,6.7c12.9,0.1,25.8,0.1,38.6,0c4.8,0,7.8-2.7,7.8-6.7c0.1-4.1-3-6.8-8-6.9C330.3,484.1,324,484.2,317.8,484.2z
		"/>
</g>
</svg>
