<?xml version="1.0" encoding="utf-8"?>
<!-- Generator: Adobe Illustrator 26.0.1, SVG Export Plug-In . SVG Version: 6.00 Build 0)  -->
<svg version="1.1" id="Capa_1" xmlns="http://www.w3.org/2000/svg" xmlns:xlink="http://www.w3.org/1999/xlink" x="0px" y="0px"
	 viewBox="0 0 840 792" style="enable-background:new 0 0 840 792;" xml:space="preserve">
<style type="text/css">
	.st0{fill:url(#SVGID_1_);}
	.st1{fill:url(#SVGID_00000155855832909121851840000015580245848548464549_);}
	.st2{fill:url(#SVGID_00000002366457736303434870000007890390197707047328_);}
	.st3{fill:url(#SVGID_00000084526774078621069920000008775702691944244926_);}
	.st4{fill:#FCFCFC;}
	.st5{fill:url(#SVGID_00000164512769392260981790000012057935860174293120_);}
	.st6{fill:url(#SVGID_00000007407144202189498710000008605324080381300895_);}
	.st7{fill:url(#SVGID_00000060008715470963677470000011603897465272420539_);}
	.st8{fill:url(#SVGID_00000147195605485376709780000014304907425714955684_);}
</style>
<linearGradient id="SVGID_1_" gradientUnits="userSpaceOnUse" x1="112.1857" y1="395.5201" x2="771.4143" y2="395.5201">
	<stop  offset="1.843468e-02" style="stop-color:#DD5919"/>
	<stop  offset="0.309" style="stop-color:#E68C24"/>
	<stop  offset="0.7821" style="stop-color:#F4DA36"/>
	<stop  offset="1" style="stop-color:#F9F93D"/>
</linearGradient>
<circle class="st0" cx="441.8" cy="395.5" r="329.6"/>
<linearGradient id="SVGID_00000124872411294028010060000007313698756456817075_" gradientUnits="userSpaceOnUse" x1="445.9998" y1="790.6829" x2="437.8296" y2="22.6829">
	<stop  offset="1.843509e-02" style="stop-color:#491819"/>
	<stop  offset="0.6162" style="stop-color:#800912"/>
	<stop  offset="1" style="stop-color:#9F000E"/>
</linearGradient>
<path style="fill:url(#SVGID_00000124872411294028010060000007313698756456817075_);" d="M441.8,33.5
	c-200.1,0-362.4,162.2-362.4,362.4s162.2,362.4,362.4,362.4S804.2,596,804.2,395.9S641.9,33.5,441.8,33.5z M441.8,725.5
	c-182,0-329.6-147.6-329.6-329.6S259.8,66.3,441.8,66.3s329.6,147.6,329.6,329.6S623.8,725.5,441.8,725.5z"/>
<g>
	<path d="M377.2,228.3c7.5,1.1,13,5.8,18.5,10.6c19.8,17.1,39.7,34,59.6,51c2.3,2,4.8,3.7,7.5,5.8c3.2-1.8,7.6-4.4,12.1-6.9
		c19.6-10.6,40-19.7,60.8-27.9c14.3-5.6,28.7-10.8,43-16.3c4.9-1.9,9.8-3.6,15.1-4c20.2-1.7,39.3,13.8,41.6,33.9
		c1.5,12.9-2.1,24-11.3,33.2c-26,26.1-52,52.1-78,78.1c-57.9,57.9-115.7,115.7-173.6,173.6c-6.4,6.4-12.8,12.8-19.2,19.2
		c-8.2,8-18,11.6-29.4,11.2c-21.1-0.7-38.3-19.4-37.4-40.5c0.5-10.7,4.6-19.7,12.2-27.2c24.4-24.4,48.8-48.8,73.2-73.2
		c0.5-0.5,1.2-0.9,1.8-1.3c-4.1-3.3-7.8-6.2-11.4-9.3c-7.9-6.6-14.1-14.9-20.8-22.6c-20.2-23.4-40.3-46.9-60.4-70.3
		c-9.6-11.2-9.1-25.2,1.2-35.6c3.4-3.5,6.9-6.9,10.4-10.4c3.2-3.2,6.9-5.7,11.4-6.9c0.7-0.2,1.4-1,1.6-1.6c1.4-4.4,3.7-8.2,6.9-11.4
		c4.3-4.3,8.6-8.6,12.9-12.9c3.1-3.2,6.8-5.4,11-6.7c0.7-0.2,1.6-1,1.8-1.7c1.3-4.4,3.6-8,6.8-11.2c3.6-3.5,7.1-7.1,10.7-10.7
		c3.9-4,8.6-6.5,14.1-7.5c0.2,0,0.5-0.2,0.7-0.3C372.9,228.3,375.1,228.3,377.2,228.3z M436.6,386.2c0,10.5,0,21,0,31.6
		c0,0.8-0.1,1.8-0.6,2.4c-3.1,3.6-6.2,7.2-9.6,10.5c-7.3,7.1-14.8,14-22,21.1c-21.8,21.6-43.4,43.4-65.1,65.1
		c-7.8,7.8-15.5,15.6-23.3,23.3c-3.7,3.7-5.1,8.2-4.1,13.2c1.1,5.4,4.5,9.1,9.8,10.7c5.5,1.7,10.4,0.4,14.4-3.7
		c9.3-9.2,18.5-18.5,27.7-27.7c75.1-75.1,150.2-150.1,225.2-225.2c5.9-5.9,11.9-11.8,17.7-17.8c4.4-4.5,5.4-10.9,2.7-16.4
		c-2.6-5.4-8.1-8.6-14.4-7.8c-2.3,0.3-4.6,1.3-6.9,2.1c-27.9,9.9-55.5,20.5-82.3,33.2c-15.5,7.3-30.6,15.2-44.2,25.7
		c-8.8,6.8-16.9,14.3-23.4,23.4c-1.2,1.7-1.8,3.4-1.8,5.6C436.7,365.8,436.6,376,436.6,386.2z M377.7,377.3
		c-22.2-20.2-44.4-40.5-66.5-60.6c-4,4-7.8,7.8-11.6,11.7c0.2,0.2,0.5,0.6,0.8,0.9c22.6,26.3,45.3,52.6,67.8,79.1
		c6.5,7.6,13.7,14.3,22,19.9c1.1,0.8,1.8,0.9,2.9-0.2c5.8-5.9,11.7-11.7,17.4-17.5c0.6-0.6,1.1-1.7,1.1-2.6
		c0.1-19.8,0.1-39.5,0-59.3c0-3.2,0.2-6.1,2.5-8.5c0.1-0.1,0-0.2,0,0.1c-0.8-0.5-1.6-0.8-2.2-1.3c-22.1-17.8-44.2-35.7-66.3-53.5
		c-0.6-0.5-1.2-0.9-1.5-1.1c-4.7,4.7-9.3,9.2-13.9,13.7c18.9,23.3,38,46.8,57,70.2C383.8,371.2,380.9,374.1,377.7,377.3z M362.6,265
		c19.7,21.6,39.3,43.2,58.9,64.7c6.3-6.7,12.4-13.2,18.6-19.9c-21.9-18.8-43.9-37.6-65.9-56.4C370.3,257.3,366.5,261,362.6,265z"/>
	<path d="M587,582.5c-14.4-0.4-26.1-5.3-35.4-15.6c-22.9-25.5-45.8-51.1-68.7-76.7c-4.8-5.3-4.5-12.8,0.5-17.3
		c5.1-4.6,12.5-4,17.4,1.4c22.8,25.4,45.5,50.8,68.3,76.3c9.2,10.3,25,10.5,34.3,0.6c8.9-9.5,8.3-24.5-1.4-33.2
		c-25.5-22.8-50.9-45.6-76.4-68.4c-4-3.6-5.5-7.9-3.9-13c1.5-4.9,5.1-7.6,10.1-8.3c3.7-0.5,6.8,0.9,9.6,3.3
		c10.9,9.7,21.8,19.5,32.7,29.2c14.6,13,29.3,25.9,43.7,39.2c14.5,13.4,19.3,30,13.7,48.8c-5.7,19-19.3,29.9-38.8,33.1
		C590.6,582.4,588.5,582.4,587,582.5z"/>
</g>
</svg>
